<svg xmlns="http://www.w3.org/2000/svg" xmlns:xlink="http://www.w3.org/1999/xlink" width="500" zoomAndPan="magnify" viewBox="0 0 375 374.999991" height="500" preserveAspectRatio="xMidYMid meet" version="1.0"><defs><clipPath id="c346bd3d89"><path d="M 182 315 L 213 315 L 213 336.75 L 182 336.75 Z M 182 315 " clip-rule="nonzero"/></clipPath><clipPath id="eaccf730a9"><path d="M 65.957031 37.523438 L 329.574219 37.523438 L 329.574219 173.828125 L 65.957031 173.828125 Z M 65.957031 37.523438 " clip-rule="nonzero"/></clipPath><clipPath id="4a987e08ca"><path d="M 45.390625 173 L 94 173 L 94 215 L 45.390625 215 Z M 45.390625 173 " clip-rule="nonzero"/></clipPath></defs><path fill="#299fff" d="M 209.832031 321.488281 C 209.832031 328.347656 204.273438 333.90625 197.417969 333.90625 C 190.558594 333.90625 185 328.347656 185 321.488281 C 185 314.628906 190.558594 309.070312 197.417969 309.070312 C 204.273438 309.070312 209.832031 314.628906 209.832031 321.488281 " fill-opacity="1" fill-rule="nonzero"/><path fill="#007af5" d="M 168.957031 293.023438 C 168.957031 308.679688 181.761719 321.488281 197.417969 321.488281 C 213.070312 321.488281 225.878906 308.679688 225.878906 293.023438 L 225.878906 277.210938 L 168.957031 277.210938 L 168.957031 293.023438 " fill-opacity="1" fill-rule="nonzero"/><path fill="#1561d4" d="M 222.933594 293.023438 L 222.933594 280.15625 L 211.164062 280.15625 L 184.367188 314.945312 C 188.1875 317.226562 192.652344 318.542969 197.417969 318.542969 C 211.488281 318.542969 222.933594 307.09375 222.933594 293.023438 " fill-opacity="1" fill-rule="nonzero"/><path fill="#ffc86b" d="M 268.476562 197.214844 C 268.476562 157.96875 236.660156 126.148438 197.417969 126.148438 C 158.171875 126.148438 126.359375 157.96875 126.359375 197.214844 C 126.359375 256.375 169.238281 254.515625 168.957031 261.757812 L 168.957031 277.210938 L 225.878906 277.210938 L 225.878906 261.757812 C 225.785156 250.421875 268.476562 258.75 268.476562 197.214844 " fill-opacity="1" fill-rule="nonzero"/><path fill="#243047" d="M 234.386719 294.167969 L 160.445312 294.167969 C 158.890625 294.167969 157.628906 292.90625 157.628906 291.351562 C 157.628906 289.792969 158.890625 288.53125 160.445312 288.53125 L 234.386719 288.53125 C 235.945312 288.53125 237.207031 289.792969 237.207031 291.351562 C 237.207031 292.90625 235.945312 294.167969 234.386719 294.167969 " fill-opacity="1" fill-rule="nonzero"/><path fill="#243047" d="M 227.691406 308.679688 L 167.144531 308.679688 C 165.585938 308.679688 164.324219 307.417969 164.324219 305.859375 C 164.324219 304.304688 165.585938 303.042969 167.144531 303.042969 L 227.691406 303.042969 C 229.25 303.042969 230.507812 304.304688 230.507812 305.859375 C 230.507812 307.417969 229.25 308.679688 227.691406 308.679688 " fill-opacity="1" fill-rule="nonzero"/><g clip-path="url(#c346bd3d89)"><path fill="#243047" d="M 187.910156 322.820312 C 188.5625 327.484375 192.578125 331.085938 197.417969 331.085938 C 202.257812 331.085938 206.269531 327.484375 206.921875 322.820312 C 203.863281 323.808594 200.679688 324.308594 197.417969 324.308594 C 194.152344 324.308594 190.972656 323.808594 187.910156 322.820312 Z M 197.417969 336.726562 C 189.015625 336.726562 182.183594 329.890625 182.183594 321.488281 C 182.183594 320.371094 182.308594 319.246094 182.554688 318.144531 C 182.742188 317.304688 183.300781 316.601562 184.070312 316.226562 C 184.839844 315.851562 185.738281 315.84375 186.511719 316.210938 C 189.949219 317.84375 193.617188 318.667969 197.417969 318.667969 C 201.214844 318.667969 204.886719 317.84375 208.320312 316.210938 C 209.09375 315.84375 209.992188 315.851562 210.765625 316.226562 C 211.535156 316.601562 212.09375 317.304688 212.277344 318.140625 C 212.527344 319.246094 212.652344 320.371094 212.652344 321.488281 C 212.652344 329.890625 205.816406 336.726562 197.417969 336.726562 " fill-opacity="1" fill-rule="nonzero"/></g><path fill="#243047" d="M 171.773438 280.03125 L 171.773438 293.023438 C 171.773438 307.164062 183.277344 318.667969 197.417969 318.667969 C 211.554688 318.667969 223.058594 307.164062 223.058594 293.023438 L 223.058594 280.03125 Z M 197.417969 324.308594 C 180.167969 324.308594 166.136719 310.273438 166.136719 293.023438 L 166.136719 277.210938 C 166.136719 275.65625 167.398438 274.390625 168.957031 274.390625 L 225.878906 274.390625 C 227.433594 274.390625 228.695312 275.65625 228.695312 277.210938 L 228.695312 293.023438 C 228.695312 310.273438 214.664062 324.308594 197.417969 324.308594 " fill-opacity="1" fill-rule="nonzero"/><path fill="#243047" d="M 171.773438 274.390625 L 223.058594 274.390625 L 223.058594 261.757812 C 223.015625 256.492188 228.09375 254.335938 233.972656 251.839844 C 246.589844 246.476562 265.65625 238.382812 265.65625 197.21875 C 265.65625 159.585938 235.042969 128.96875 197.417969 128.96875 C 159.789062 128.96875 129.179688 159.585938 129.179688 197.21875 C 129.179688 239.109375 151.203125 248.878906 163.035156 254.125 C 168.164062 256.402344 171.878906 258.046875 171.773438 261.804688 Z M 225.878906 280.03125 L 168.957031 280.03125 C 167.398438 280.03125 166.136719 278.769531 166.136719 277.210938 L 166.136719 262.035156 C 165.402344 261.34375 162.839844 260.207031 160.75 259.28125 C 148.671875 253.925781 123.539062 242.777344 123.539062 197.21875 C 123.539062 156.476562 156.683594 123.332031 197.417969 123.332031 C 238.152344 123.332031 271.292969 156.476562 271.292969 197.21875 C 271.292969 216.828125 267.15625 231.394531 258.648438 241.757812 C 251.425781 250.550781 242.613281 254.292969 236.175781 257.027344 C 232.15625 258.734375 228.683594 260.210938 228.695312 261.738281 L 228.695312 277.210938 C 228.695312 278.769531 227.433594 280.03125 225.878906 280.03125 " fill-opacity="1" fill-rule="nonzero"/><path fill="#ffb842" d="M 197.417969 128.96875 C 165.910156 128.96875 139.324219 150.4375 131.511719 179.515625 C 139.210938 172.144531 155.84375 168.03125 177.683594 168.171875 C 207.957031 168.367188 247.101562 177.179688 265.539062 193.257812 C 263.480469 157.460938 233.714844 128.96875 197.417969 128.96875 " fill-opacity="1" fill-rule="nonzero"/><path fill="#007af5" d="M 326.453125 153.058594 C 309.304688 144.367188 209.628906 47.4375 203.265625 40.34375 C 200.160156 53.46875 68.773438 126.996094 68.773438 126.996094 C 96.542969 162.726562 188.390625 128.214844 209.652344 150.082031 C 218.449219 157.417969 230.765625 161.289062 244.105469 163.023438 C 307.691406 181.953125 329.640625 161.632812 326.453125 153.058594 " fill-opacity="1" fill-rule="nonzero"/><path fill="#1561d4" d="M 273.242188 133.054688 C 272.570312 133.773438 271.886719 134.480469 271.1875 135.167969 C 271.671875 144.980469 270.640625 158.96875 269.335938 168.960938 C 289.953125 172.367188 304.351562 170.734375 313.574219 167.277344 C 309.0625 164.335938 300.054688 166.210938 291.058594 158.371094 C 285.148438 153.222656 280.152344 139.371094 273.242188 133.054688 " fill-opacity="1" fill-rule="nonzero"/><path fill="#299fff" d="M 202.855469 41.371094 C 198.253906 49.941406 160.90625 75.296875 128.320312 96.320312 C 141.304688 101.890625 160.125 102.601562 174.234375 94.539062 C 192.371094 84.167969 202.421875 59.464844 202.855469 41.371094 " fill-opacity="1" fill-rule="nonzero"/><path fill="#1561d4" d="M 126.28125 94.980469 C 119.125 107.773438 112.496094 125.308594 106.640625 139.042969 C 110.234375 139.804688 114 140.375 117.90625 140.773438 C 129.042969 119.058594 141.449219 93.5625 152.757812 80.035156 C 143.539062 85.285156 134.589844 90.328125 126.28125 94.980469 " fill-opacity="1" fill-rule="nonzero"/><g clip-path="url(#eaccf730a9)"><path fill="#243047" d="M 73.164062 127.753906 C 88.890625 143.917969 122.261719 142.035156 151.867188 140.367188 C 168.449219 139.429688 184.113281 138.546875 195.847656 140.765625 C 198.1875 141.207031 203.515625 141.300781 208.664062 141.394531 C 216.765625 141.539062 225.140625 141.683594 228.894531 143.054688 C 231.632812 144.058594 236.738281 147.433594 244.835938 152.855469 C 252.433594 157.945312 262.835938 164.914062 265.980469 165.507812 C 298.023438 171.5625 316.28125 165.546875 322.179688 158.558594 C 323.429688 157.074219 323.902344 155.792969 323.933594 154.871094 C 304.796875 143.390625 220.625 62.078125 203.738281 44.90625 C 201.011719 48.09375 195.175781 53.082031 182.53125 61.746094 C 171.207031 69.507812 155.652344 79.351562 136.308594 91.003906 C 109.195312 107.339844 82.050781 122.742188 73.164062 127.753906 Z M 315.8125 169.390625 C 305.261719 173.703125 288.484375 175.492188 264.933594 171.042969 C 260.957031 170.289062 253.152344 165.207031 241.703125 157.539062 C 235.558594 153.421875 229.203125 149.167969 226.964844 148.347656 C 224.09375 147.300781 215.484375 147.148438 208.566406 147.027344 C 202.6875 146.921875 197.613281 146.832031 194.800781 146.300781 C 183.742188 144.210938 168.414062 145.074219 152.183594 145.988281 C 119.757812 147.820312 83.003906 149.890625 66.550781 128.722656 C 66.046875 128.074219 65.851562 127.238281 66.011719 126.433594 C 66.175781 125.632812 66.683594 124.9375 67.398438 124.535156 C 67.726562 124.351562 100.378906 106.0625 133.089844 86.367188 C 152.273438 74.816406 167.710938 65.054688 178.980469 57.351562 C 198.472656 44.027344 200.347656 40.300781 200.527344 39.6875 C 200.769531 38.667969 201.554688 37.871094 202.570312 37.613281 C 203.585938 37.351562 204.660156 37.683594 205.363281 38.464844 C 212.914062 46.882812 311.417969 142.277344 327.726562 150.542969 C 328.359375 150.863281 328.847656 151.410156 329.09375 152.078125 C 330.246094 155.175781 329.292969 158.863281 326.484375 162.191406 C 324.210938 164.882812 320.671875 167.40625 315.8125 169.390625 " fill-opacity="1" fill-rule="nonzero"/></g><path fill="#007af5" d="M 132.128906 164.171875 L 127.382812 124.121094 C 127.382812 124.121094 214.535156 84.996094 270.957031 131.898438 C 272.578125 148.449219 268.222656 183.554688 266.363281 181.144531 C 248.902344 158.5 188.804688 149.542969 156.226562 151.878906 C 144.957031 152.6875 132.128906 164.171875 132.128906 164.171875 " fill-opacity="1" fill-rule="nonzero"/><path fill="#1561d4" d="M 127.382812 124.121094 L 127.929688 128.726562 C 154.964844 130.71875 205.964844 129.28125 234.234375 144.953125 C 242.253906 149.398438 246.117188 153.929688 247.578125 155.769531 C 251.84375 161.136719 254.128906 166.808594 255.433594 172.464844 C 259.988281 174.859375 263.726562 177.722656 266.363281 181.144531 C 268.222656 183.554688 272.578125 148.449219 270.957031 131.898438 C 214.535156 84.996094 127.382812 124.121094 127.382812 124.121094 " fill-opacity="1" fill-rule="nonzero"/><path fill="#243047" d="M 143.300781 153.042969 C 154.78125 148.355469 169.121094 147.539062 178.429688 147.601562 C 208.46875 147.8125 247.757812 157.730469 265.4375 175.808594 C 267.101562 167.042969 269.238281 145.925781 268.253906 133.320312 C 240.023438 110.472656 203.875 109.75 178.390625 113.210938 C 155.070312 116.382812 136.273438 123.503906 130.425781 125.890625 L 130.425781 125.894531 C 131.691406 136.738281 133.316406 150.613281 134.222656 158.183594 C 136.878906 156.09375 139.96875 154.40625 143.300781 153.042969 Z M 267.796875 183.8125 C 267.75 183.828125 267.707031 183.847656 267.664062 183.863281 C 266.402344 184.367188 264.980469 183.964844 264.132812 182.863281 C 249.511719 163.902344 209.046875 153.449219 178.390625 153.234375 C 156.910156 153.085938 140.851562 157.710938 134.332031 165.921875 C 133.402344 167.101562 131.710938 167.335938 130.488281 166.464844 C 129.46875 165.734375 129.398438 165.167969 129.105469 162.777344 C 128.96875 161.675781 128.78125 160.105469 128.554688 158.222656 C 128.105469 154.464844 127.515625 149.457031 126.925781 144.453125 C 125.75 134.445312 124.585938 124.449219 124.585938 124.449219 C 124.445312 123.226562 125.109375 122.054688 126.230469 121.550781 C 127.132812 121.144531 148.722656 111.558594 177.632812 107.628906 C 194.671875 105.316406 210.683594 105.480469 225.222656 108.125 C 243.515625 111.449219 259.507812 118.71875 272.753906 129.730469 C 273.324219 130.203125 273.683594 130.882812 273.757812 131.621094 C 274.453125 138.730469 274.140625 150.273438 272.914062 162.492188 C 270.960938 181.972656 269.214844 183.230469 267.796875 183.8125 " fill-opacity="1" fill-rule="nonzero"/><path fill="#ff9933" d="M 127.273438 71.238281 C 102.058594 80.035156 84.820312 182.773438 79.949219 186.890625 C 79.746094 187.0625 81.132812 194.632812 81.558594 194.890625 C 86.875 198.160156 116.921875 73.574219 137.542969 81.0625 C 137.542969 81.0625 135.226562 68.460938 127.273438 71.238281 " fill-opacity="1" fill-rule="nonzero"/><path fill="#ffb842" d="M 131.371094 71.191406 C 130.207031 70.746094 128.851562 70.683594 127.273438 71.238281 C 102.058594 80.035156 84.820312 182.773438 79.949219 186.890625 C 79.835938 186.988281 80.210938 189.351562 80.640625 191.484375 C 86.953125 187.273438 111.761719 71.585938 131.710938 74.617188 C 132.410156 74.722656 133.082031 74.445312 133.429688 73.800781 C 133.5625 73.554688 133.632812 73.289062 133.5625 73.046875 C 133.371094 72.410156 132.617188 71.75 131.371094 71.191406 " fill-opacity="1" fill-rule="nonzero"/><path fill="#243047" d="M 137.542969 81.0625 C 136.175781 80.5625 134.769531 80.648438 133.332031 81.234375 C 113.558594 89.316406 87.863281 192.507812 81.976562 194.914062 C 81.824219 194.976562 81.683594 194.96875 81.558594 194.890625 C 81.132812 194.632812 79.746094 187.0625 79.949219 186.890625 C 84.78125 182.804688 101.789062 81.632812 126.683594 71.460938 C 126.878906 71.378906 127.078125 71.304688 127.273438 71.238281 C 135.226562 68.460938 137.542969 81.0625 137.542969 81.0625 Z M 135.023438 66.707031 C 132.113281 65.015625 128.789062 64.742188 125.417969 65.917969 C 125.128906 66.019531 124.839844 66.128906 124.554688 66.246094 C 115.121094 70.101562 106.71875 82.800781 98.105469 106.210938 C 91.363281 124.546875 85.792969 146.074219 81.726562 161.792969 C 79.40625 170.757812 76.789062 180.882812 75.632812 183.269531 C 74.84375 184.195312 74.167969 185.601562 74.320312 187.640625 C 74.410156 188.816406 74.808594 191.066406 75.128906 192.632812 C 75.785156 195.890625 76.257812 198.246094 78.605469 199.691406 C 80.273438 200.714844 82.277344 200.875 84.109375 200.128906 C 88.261719 198.429688 90.121094 193.714844 99.820312 165.113281 C 105.09375 149.558594 111.65625 130.203125 118.335938 114.511719 C 128.410156 90.851562 133.988281 87.050781 135.460938 86.449219 C 135.566406 86.40625 135.640625 86.386719 135.683594 86.378906 C 137 86.839844 138.417969 86.789062 139.671875 86.273438 C 140.214844 86.054688 140.722656 85.75 141.179688 85.359375 C 142.722656 84.054688 143.449219 82.027344 143.082031 80.042969 C 142.785156 78.425781 141 70.183594 135.023438 66.707031 " fill-opacity="1" fill-rule="nonzero"/><path fill="#ff9933" d="M 48.414062 194.699219 C 48.414062 194.699219 63.664062 200.683594 65.570312 186.546875 C 67.695312 170.785156 84.128906 177.898438 87.292969 181.222656 C 96.925781 191.347656 84.75 211.117188 72.726562 211.917969 C 55.640625 213.058594 48.414062 194.699219 48.414062 194.699219 " fill-opacity="1" fill-rule="nonzero"/><path fill="#ffb842" d="M 62.167969 209.925781 C 66.585938 208.660156 70.65625 205.261719 71.226562 197.199219 C 72.175781 183.730469 81.589844 182.203125 89.222656 183.875 C 88.714844 182.9375 88.078125 182.046875 87.292969 181.222656 C 84.128906 177.898438 67.695312 170.785156 65.570312 186.546875 C 63.664062 200.683594 48.414062 194.699219 48.414062 194.699219 C 48.414062 194.699219 52.609375 205.359375 62.167969 209.925781 " fill-opacity="1" fill-rule="nonzero"/><g clip-path="url(#4a987e08ca)"><path fill="#243047" d="M 53.785156 198.707031 C 56.972656 203.453125 63.035156 209.742188 72.535156 209.105469 C 77.9375 208.746094 84.03125 203.292969 86.710938 196.417969 C 87.6875 193.917969 89.496094 187.625 85.253906 183.164062 C 83.683594 181.511719 77.21875 178.488281 72.898438 179.886719 C 71.972656 180.1875 69.144531 181.105469 68.359375 186.921875 C 67.722656 191.660156 65.707031 195.054688 62.378906 197.011719 C 59.640625 198.621094 56.488281 198.90625 53.785156 198.707031 Z M 77.9375 213.535156 C 76.324219 214.191406 74.640625 214.613281 72.910156 214.730469 C 53.992188 215.992188 46.121094 196.558594 45.792969 195.730469 C 45.382812 194.6875 45.628906 193.5 46.417969 192.707031 C 47.210938 191.917969 48.394531 191.667969 49.433594 192.074219 C 51.15625 192.738281 56.328125 194.050781 59.535156 192.148438 C 61.316406 191.09375 62.378906 189.136719 62.777344 186.167969 C 63.820312 178.457031 67.914062 175.582031 71.164062 174.527344 C 78.015625 172.308594 86.632812 176.445312 89.332031 179.28125 C 93.886719 184.070312 94.847656 191.058594 91.960938 198.460938 C 89.578125 204.570312 84.320312 210.925781 77.9375 213.535156 " fill-opacity="1" fill-rule="nonzero"/></g><path fill="#243047" d="M 201.320312 251.871094 C 200.660156 251.730469 200.015625 251.5625 199.386719 251.375 C 197.894531 250.925781 197.050781 249.351562 197.496094 247.863281 C 197.945312 246.371094 199.519531 245.523438 201.007812 245.972656 C 207.8125 248.015625 217.378906 246.578125 226.601562 242.125 C 235.191406 237.972656 241.738281 231.984375 243.273438 226.871094 C 243.71875 225.378906 245.292969 224.53125 246.78125 224.980469 C 248.273438 225.429688 249.121094 227.003906 248.671875 228.492188 C 246.671875 235.152344 239.152344 242.320312 229.054688 247.199219 C 219.25 251.933594 209.277344 253.597656 201.320312 251.871094 " fill-opacity="1" fill-rule="nonzero"/><path fill="#1c2c42" d="M 241.441406 205.144531 C 241.824219 216.890625 236.605469 226.589844 229.78125 226.816406 C 222.957031 227.039062 217.113281 217.699219 216.726562 205.953125 C 216.34375 194.207031 221.5625 184.503906 228.386719 184.28125 C 235.210938 184.058594 241.054688 193.398438 241.441406 205.144531 " fill-opacity="1" fill-rule="nonzero"/><path fill="#ffffff" d="M 236.898438 196.636719 C 237.019531 200.457031 235.324219 203.613281 233.101562 203.6875 C 230.882812 203.757812 228.980469 200.722656 228.855469 196.898438 C 228.730469 193.078125 230.433594 189.921875 232.652344 189.851562 C 234.871094 189.777344 236.773438 192.816406 236.898438 196.636719 " fill-opacity="1" fill-rule="nonzero"/><path fill="#1c2c42" d="M 183.570312 205.144531 C 183.953125 216.890625 178.734375 226.589844 171.910156 226.816406 C 165.085938 227.039062 159.238281 217.699219 158.855469 205.953125 C 158.472656 194.207031 163.691406 184.503906 170.515625 184.28125 C 177.339844 184.058594 183.183594 193.398438 183.570312 205.144531 " fill-opacity="1" fill-rule="nonzero"/><path fill="#ffffff" d="M 179.027344 196.648438 C 179.152344 200.476562 177.449219 203.640625 175.226562 203.714844 C 173 203.785156 171.097656 200.742188 170.972656 196.914062 C 170.847656 193.085938 172.546875 189.921875 174.769531 189.851562 C 176.996094 189.777344 178.902344 192.824219 179.027344 196.648438 " fill-opacity="1" fill-rule="nonzero"/><path fill="#243047" d="M 173.4375 164.105469 C 160.09375 161 143.476562 191.398438 143.476562 191.398438 C 143.476562 191.398438 165.394531 172.351562 175.492188 172.351562 C 176.988281 172.351562 179.972656 165.628906 173.4375 164.105469 " fill-opacity="1" fill-rule="nonzero"/><path fill="#243047" d="M 221.449219 164.105469 C 234.792969 161 251.410156 191.398438 251.410156 191.398438 C 251.410156 191.398438 229.492188 172.351562 219.394531 172.351562 C 217.898438 172.351562 214.910156 165.628906 221.449219 164.105469 " fill-opacity="1" fill-rule="nonzero"/><path fill="#fff3a9" d="M 147.445312 229.804688 C 145.757812 229.804688 144.144531 228.828125 143.414062 227.183594 C 142.347656 224.78125 137.089844 212.453125 138.347656 205.789062 C 138.75 203.671875 140.601562 202.199219 142.679688 202.199219 C 142.949219 202.199219 143.226562 202.222656 143.503906 202.277344 C 145.246094 202.605469 146.550781 203.917969 146.960938 205.527344 C 147.113281 206.132812 147.140625 206.777344 147.015625 207.429688 C 146.515625 210.074219 148.941406 217.882812 151.476562 223.601562 C 152.460938 225.832031 151.460938 228.433594 149.234375 229.421875 C 148.652344 229.679688 148.042969 229.804688 147.445312 229.804688 " fill-opacity="1" fill-rule="nonzero"/></svg>